<svg width="64" height="64" viewBox="0 0 64 64" fill="none" xmlns="http://www.w3.org/2000/svg">
  <defs>
    <linearGradient id="rrp-bg" x1="8" y1="8" x2="56" y2="56" gradientUnits="userSpaceOnUse">
      <stop stop-color="#0B1220"/>
      <stop offset="0.55" stop-color="#1E3A8A"/>
      <stop offset="1" stop-color="#06B6D4"/>
    </linearGradient>
    <linearGradient id="rrp-arrow" x1="22" y1="48" x2="48" y2="24" gradientUnits="userSpaceOnUse">
      <stop stop-color="#06B6D4"/>
      <stop offset="1" stop-color="#2563EB"/>
    </linearGradient>
  </defs>

  <rect x="4" y="4" width="56" height="56" rx="14" fill="url(#rrp-bg)"/>
  <rect x="11" y="14" width="28" height="25" rx="4" fill="#EAF6FF" opacity="0.16"/>
  <rect x="13.5" y="16.5" width="23" height="20" rx="2.5" stroke="#DFF7FF" stroke-width="2" opacity="0.9"/>

  <path d="M25 19V34" stroke="#EAFBFF" stroke-width="2.6" stroke-linecap="round"/>
  <path d="M20 21C16.5 23 15.5 27 16 32" stroke="#EAFBFF" stroke-width="2.4" stroke-linecap="round"/>
  <path d="M30 21C33.5 23 34.5 27 34 32" stroke="#EAFBFF" stroke-width="2.4" stroke-linecap="round"/>
  <path d="M18 25C20.5 26.5 22.5 26.5 25 25" stroke="#EAFBFF" stroke-width="2.1" stroke-linecap="round"/>
  <path d="M32 25C29.5 26.5 27.5 26.5 25 25" stroke="#EAFBFF" stroke-width="2.1" stroke-linecap="round"/>
  <path d="M17 30C20 31.5 22.5 31.5 25 30" stroke="#EAFBFF" stroke-width="2.1" stroke-linecap="round"/>
  <path d="M33 30C30 31.5 27.5 31.5 25 30" stroke="#EAFBFF" stroke-width="2.1" stroke-linecap="round"/>

  <path d="M36 20H49L55 26V47C55 49.2 53.2 51 51 51H36C33.8 51 32 49.2 32 47V24C32 21.8 33.8 20 36 20Z" fill="#FFFFFF"/>
  <path d="M49 20V26H55" fill="#DBEAFE"/>
  <rect x="37" y="29" width="13" height="2.4" rx="1.2" fill="#0B1220" opacity="0.85"/>
  <rect x="37" y="35" width="14" height="2.4" rx="1.2" fill="#0B1220" opacity="0.65"/>
  <rect x="37" y="41" width="10" height="2.4" rx="1.2" fill="#06B6D4" opacity="0.9"/>

  <path d="M18 51L46 31L38 58L31 46L18 51Z" fill="url(#rrp-arrow)" stroke="#F8FAFC" stroke-width="2" stroke-linejoin="round"/>
  <circle cx="15" cy="44" r="1.7" fill="#06B6D4"/>
  <circle cx="21" cy="44" r="1.7" fill="#06B6D4" opacity="0.75"/>
</svg>
